<?xml version="1.0" encoding="UTF-8" standalone="no"?>
<svg
   width="141"
   height="140"
   viewBox="-20 -20 181 180"
   fill="none"
   version="1.1"
   id="svg30419"
   sodipodi:docname="lancep.svg"
   inkscape:version="1.2.1 (9c6d41e410, 2022-07-14)"
   xmlns:inkscape="http://www.inkscape.org/namespaces/inkscape"
   xmlns:sodipodi="http://sodipodi.sourceforge.net/DTD/sodipodi-0.dtd"
   xmlns="http://www.w3.org/2000/svg"
   xmlns:svg="http://www.w3.org/2000/svg">
  <defs
     id="defs30423">
    <inkscape:path-effect
       effect="bspline"
       id="path-effect34227"
       is_visible="true"
       lpeversion="1"
       weight="33.333333"
       steps="2"
       helper_size="0"
       apply_no_weight="true"
       apply_with_weight="true"
       only_selected="false" />
    <inkscape:path-effect
       effect="bspline"
       id="path-effect31228"
       is_visible="true"
       lpeversion="1"
       weight="33.333333"
       steps="2"
       helper_size="0"
       apply_no_weight="true"
       apply_with_weight="true"
       only_selected="false" />
    <inkscape:path-effect
       effect="bspline"
       id="path-effect31019"
       is_visible="true"
       lpeversion="1"
       weight="33.333333"
       steps="2"
       helper_size="0"
       apply_no_weight="true"
       apply_with_weight="true"
       only_selected="false" />
  </defs>
  <sodipodi:namedview
     id="namedview30421"
     pagecolor="#ffffff"
     bordercolor="#000000"
     borderopacity="0.25"
     inkscape:showpageshadow="2"
     inkscape:pageopacity="0.0"
     inkscape:pagecheckerboard="0"
     inkscape:deskcolor="#d1d1d1"
     showgrid="false"
     inkscape:zoom="2"
     inkscape:cx="51"
     inkscape:cy="61"
     inkscape:window-width="1366"
     inkscape:window-height="705"
     inkscape:window-x="-8"
     inkscape:window-y="-8"
     inkscape:window-maximized="1"
     inkscape:current-layer="g32145" />
  <g
     id="g32145"
     transform="rotate(-36.958349,100.76305,84.387884)">
    <g
       id="g35193"
       transform="rotate(-16.742133,66.744775,77.92836)">
      <path
         fill-rule="evenodd"
         clip-rule="evenodd"
         d="m 82.438096,104.0415 -3.347197,-2.60705 64.595481,-84.516509 c -0.0749,-0.329974 1.80377,0.594575 1.80377,0.594575 2.03297,-3.730016 0,-9e-6 2.03297,-3.730016 -0.009,-0.0271 -1.62302,0.467475 -2.4124,-0.173049 -0.76417,-0.620063 -0.70419,-2.37585 -0.71299,-2.403003 -0.41052,-1.2668445 -4.46253,4.368109 -4.30387,4.95305 l -31.50391,40.620618 -31.548823,41.131862 -7.952629,2.453992 -6.075515,25.45253 23.188507,-13.50585 0.18628,-7.12708 31.62613,-41.314712 30.7973,-41.07377 c 0.61222,0.0103 4.55256,-3.948639 3.22992,-4.035533 -0.01,-4.56e-4 -1.42946,0.161141 -2.25749,-0.832979 -0.98821,-1.186442 -1.41226,-3.562738 -1.41226,-3.562738 l -2.88122,3.146678 c 0,0 1.81543,1.985549 1.70823,1.988273 z m -3.347197,-2.60705 3.347227,2.60714 0.391569,6.40063 -15.014666,8.91944 4.973811,-16.74101 z"
         fill="#3c3c3c"
         id="path30383"
         sodipodi:nodetypes="cccccscccccccccccscccccccccc"
         style="fill:#3c3c3c;fill-opacity:1;stroke-width:0.999997" />
      <path
         style="opacity:0.99;fill:#3c3c3c;fill-opacity:1;fill-rule:evenodd;stroke:none;stroke-width:0.878141;stroke-linecap:round;stroke-dasharray:none;stroke-opacity:1"
         d="m 148.28407,14.309137 c -0.0873,-0.0567 -0.24666,-0.160217 -0.33953,-0.23374 -0.0929,-0.07352 -0.12424,-0.11382 -0.15364,-0.130834 -0.0294,-0.01701 -0.0502,-0.02086 -0.0653,-0.04028 -0.0151,-0.01941 -0.0321,-0.04409 -0.0466,-0.0466 -0.0146,-0.0025 -0.0205,-8.04e-4 -0.0236,-0.01152 -0.003,-0.01072 -0.005,-0.01657 -0.0237,-0.02006 -0.0189,-0.0035 -0.0397,-0.0073 -0.0547,-0.02184 -0.015,-0.01451 -0.0293,-0.03005 -0.0413,-0.02839 -0.012,0.0017 -0.0179,0.0034 -0.0223,-0.01192 -0.004,-0.01528 -0.01,-0.03343 -0.0257,-0.03197 -0.0161,0.0015 -0.0343,0.0067 -0.0503,-0.0066 -0.016,-0.0133 -0.0303,-0.02884 -0.0881,0.06505 -0.0578,0.09389 -0.17054,0.284083 -0.25298,0.41205 -0.0824,0.127967 -0.13303,0.191846 -0.15878,0.230145 -0.0258,0.0383 -0.0296,0.05917 -0.0428,0.0755 -0.0132,0.01634 -0.019,0.01804 -0.0352,0.04735 -0.0162,0.02931 -0.0485,0.08791 -0.0805,0.128059 -0.0319,0.04015 -0.0565,0.05702 -0.0917,0.09631 -0.0352,0.03929 -0.0858,0.103165 -0.13113,0.146081 -0.0453,0.04292 -0.079,0.06245 -0.0932,0.07745 -0.0143,0.015 -0.0181,0.03587 -0.0646,0.09264 -0.0465,0.05678 -0.1308,0.14022 -0.17116,0.180144 -0.0404,0.03993 -0.0387,0.0456 -0.0462,0.05951 -0.008,0.0139 -0.0134,0.01561 -0.0181,0.0302 -0.005,0.01459 -0.015,0.04714 -0.0306,0.07425 -0.0157,0.02712 -0.0311,0.04133 -0.0382,0.05411 -0.007,0.01278 -0.011,0.03365 -0.0345,0.09191 -0.0236,0.05826 -0.0663,0.149442 -0.10005,0.209947 -0.0338,0.0605 -0.0559,0.08657 -0.0671,0.105805 -0.0113,0.01924 -0.0152,0.0401 -0.0327,0.07326 -0.0175,0.03316 -0.046,0.07092 -0.0595,0.08879 -0.0135,0.01787 -0.0118,0.02355 -0.0244,0.04519 -0.0126,0.02164 -0.0371,0.03851 -0.054,0.06561 -0.0169,0.0271 -0.0337,0.07138 -0.049,0.106428 -0.0153,0.03505 -0.0283,0.0585 -0.0455,0.07333 -0.0172,0.01483 -0.0231,0.01653 -0.0223,0.01941 8.2e-4,0.0029 0.006,0.02127 -0.005,0.04089 -0.0109,0.01962 -0.0291,0.02487 -0.0367,0.0403 -0.008,0.01543 -0.0179,0.04798 -0.0336,0.0751 -0.0157,0.02712 -0.0311,0.04134 -0.0401,0.06455 -0.009,0.02321 -0.0167,0.06487 -0.0318,0.09163 -0.0151,0.02676 -0.021,0.02846 -0.0262,0.05689 -0.005,0.02843 -0.0168,0.09085 -0.0223,0.127791 -0.005,0.03694 -1.8e-4,0.05534 -0.006,0.115641 -0.006,0.0603 -0.0279,0.155285 -0.0359,0.217295 -0.008,0.06201 0.002,0.09829 0.005,0.137265 0.002,0.03898 -0.008,0.07153 -0.006,0.130622 0.002,0.05909 0.019,0.152712 0.0345,0.215377 0.0155,0.06266 0.035,0.09631 0.13908,0.09851 0.10405,0.0022 0.29773,-0.0438 0.45609,-0.127377 0.15835,-0.08358 0.27121,-0.204804 0.33244,-0.272997 0.0612,-0.06819 0.0676,-0.07971 0.0783,-0.08773 0.0107,-0.008 0.038,-0.01589 0.0611,-0.02756 0.0231,-0.01167 0.0295,-0.02319 0.0355,-0.02986 0.006,-0.0067 0.0245,-0.012 0.0366,-0.02712 0.0121,-0.01513 0.0104,-0.02097 0.0132,-0.02177 0.003,-8.05e-4 0.0213,-0.0061 0.0334,-0.02126 0.0121,-0.01513 0.0104,-0.02097 0.0239,-0.03335 0.0135,-0.01238 0.0446,-0.04107 0.0592,-0.0681 0.0146,-0.02703 0.0129,-0.03287 0.0219,-0.0391 0.009,-0.0062 0.0336,-0.02308 0.0517,-0.04712 0.0181,-0.02404 0.022,-0.04481 0.0262,-0.0532 0.004,-0.0084 0.0227,-0.01373 0.0348,-0.02885 0.0121,-0.01512 0.0104,-0.02097 0.0195,-0.0272 0.009,-0.0062 0.0336,-0.02308 0.0965,-0.08577 0.0629,-0.06268 0.16023,-0.169589 0.25838,-0.271658 0.0982,-0.102069 0.19811,-0.1999 0.25642,-0.262328 0.0583,-0.06243 0.0713,-0.08588 0.16142,-0.214681 0.0901,-0.128806 0.2587,-0.364665 0.35264,-0.489681 0.094,-0.125015 0.11844,-0.141865 0.13498,-0.171677 0.0165,-0.02981 0.0179,-0.05966 0.0282,-0.08222 0.0103,-0.02256 0.0324,-0.04866 0.0479,-0.06903 0.0155,-0.02037 0.0218,-0.03188 0.0219,-0.04847 9e-5,-0.01659 -0.002,-0.02243 0.0118,-0.03481 0.0135,-0.01238 0.0446,-0.04107 0.0579,-0.07265 0.0133,-0.03158 0.008,-0.04974 0.0163,-0.0589 0.008,-0.0092 0.0327,-0.02602 0.0493,-0.05583 0.0165,-0.02981 0.0179,-0.05966 0.024,-0.07578 0.006,-0.01612 0.0217,-0.03051 0.0541,-0.101501 0.0323,-0.07099 0.0763,-0.192102 0.0665,-0.273456 -0.01,-0.08136 -0.0576,-0.115242 -0.0741,-0.12695 -0.0165,-0.01171 -0.0164,-0.01197 -0.10372,-0.06867 z"
         id="path31226"
         inkscape:path-effect="#path-effect31228"
         inkscape:original-d="m 148.37137,14.365838 c -0.1753,-0.112313 -0.33467,-0.215832 -0.47813,-0.310556 -0.0472,-0.04903 -0.0786,-0.0893 -0.094,-0.120758 -0.0367,-0.01262 -0.0575,-0.0165 -0.0625,-0.01155 -0.0329,-0.0335 -0.0499,-0.05816 -0.0509,-0.07399 -0.025,-0.0062 -0.0341,-0.0036 -0.0273,0.0079 -0.0185,-0.01786 -0.0212,-0.02699 -0.008,-0.02729 -0.0367,-0.01262 -0.0575,-0.0165 -0.0625,-0.01155 -0.0303,-0.02437 -0.0446,-0.03991 -0.043,-0.04671 -0.025,-0.0062 -0.0341,-0.0036 -0.0273,0.0079 -0.0212,-0.02699 -0.0264,-0.04515 -0.0157,-0.05458 -0.0341,-0.0036 -0.0523,0.0017 -0.0546,0.01574 -0.0303,-0.02437 -0.0446,-0.03991 -0.043,-0.04671 -0.12863,0.181404 -0.24134,0.371595 -0.33814,0.570579 -0.0665,0.05508 -0.11706,0.118986 -0.15174,0.191585 -0.0198,0.01195 -0.0236,0.03283 -0.0116,0.06245 -0.025,-0.0062 -0.0341,-0.0036 -0.0273,0.0079 -0.0483,0.04983 -0.0807,0.108397 -0.0971,0.175853 -0.0405,0.0086 -0.0653,0.02507 -0.074,0.0509 -0.0665,0.05508 -0.11706,0.118987 -0.15174,0.191585 -0.0496,0.01117 -0.0835,0.03032 -0.10132,0.05877 -0.0198,0.01195 -0.0236,0.03283 -0.0116,0.06245 -0.10025,0.0747 -0.18462,0.158116 -0.25306,0.250366 -0.0132,6.8e-4 -0.0107,0.0093 0.008,0.02729 -0.025,-0.0062 -0.0341,-0.0036 -0.0273,0.0079 -0.0262,0.0238 -0.0366,0.05633 -0.031,0.0976 -0.0314,0.0059 -0.0471,0.01982 -0.0467,0.04303 -0.0198,0.01195 -0.0236,0.03283 -0.0116,0.06245 -0.0586,0.08236 -0.10133,0.173534 -0.12813,0.273479 -0.038,0.0172 -0.06,0.04332 -0.0662,0.07819 -0.0198,0.01195 -0.0236,0.03283 -0.0116,0.06245 -0.0444,0.02904 -0.073,0.06673 -0.0856,0.113348 -0.0132,6.8e-4 -0.0107,0.0093 0.008,0.02729 -0.0405,0.0086 -0.0653,0.02507 -0.074,0.0509 -0.0327,0.03546 -0.0495,0.07974 -0.0504,0.132814 -0.0289,0.01458 -0.0418,0.03807 -0.0389,0.07032 -0.025,-0.0062 -0.0341,-0.0036 -0.0273,0.0079 -0.0107,0.0093 -0.005,0.02758 0.0157,0.05458 -0.0341,-0.0036 -0.0523,0.0017 -0.0546,0.01574 -0.0262,0.0238 -0.0366,0.05633 -0.031,0.09761 -0.0314,0.0059 -0.0471,0.01982 -0.0467,0.04303 -0.0236,0.03283 -0.0313,0.07449 -0.0231,0.124943 -0.025,-0.0062 -0.0341,-0.0036 -0.0273,0.0079 -0.0275,0.05371 -0.039,0.116146 -0.0347,0.18741 -0.0107,0.0093 -0.005,0.02758 0.0157,0.05458 -0.0378,0.08625 -0.0597,0.181229 -0.0657,0.285035 -0.005,0.02759 0.005,0.064 0.0315,0.109193 -0.0262,0.0238 -0.0366,0.05633 -0.031,0.09761 0.001,0.08488 0.0184,0.178449 0.0514,0.28086 0.004,0.02494 0.0232,0.05878 0.0588,0.101322 0.17791,-0.05442 0.37149,-0.100862 0.58114,-0.137996 0.097,-0.130052 0.20985,-0.25129 0.33864,-0.363742 -0.009,-0.02051 -0.003,-0.03222 0.0194,-0.03516 0.0114,-0.01671 0.0387,-0.02457 0.0819,-0.02361 -0.009,-0.02051 -0.003,-0.03222 0.0194,-0.03516 0.002,-0.01406 0.0205,-0.01933 0.0546,-0.01574 -0.0185,-0.01787 -0.0212,-0.02699 -0.008,-0.02729 0.002,-0.01406 0.0205,-0.01933 0.0546,-0.01574 -0.0185,-0.01787 -0.0212,-0.02699 -0.008,-0.02729 0.0152,-0.03749 0.0464,-0.06614 0.0935,-0.08606 -0.0185,-0.01787 -0.0212,-0.02699 -0.008,-0.02729 0.009,-0.02574 0.0334,-0.04273 0.074,-0.0509 -0.012,-0.02964 -0.008,-0.05038 0.0116,-0.06245 0.002,-0.01406 0.0205,-0.01933 0.0546,-0.01574 -0.0185,-0.01786 -0.0212,-0.02699 -0.008,-0.02729 0.009,-0.02574 0.0334,-0.04273 0.074,-0.0509 0.0814,-0.115675 0.17869,-0.222596 0.29191,-0.320712 0.084,-0.106547 0.18394,-0.204398 0.29979,-0.293405 -0.003,-0.03222 0.01,-0.05565 0.0389,-0.07032 0.15262,-0.244639 0.32116,-0.480501 0.50562,-0.707559 0.009,-0.02574 0.0334,-0.04273 0.074,-0.0509 -0.0146,-0.03877 -0.0135,-0.06863 0.004,-0.08974 0.006,-0.03487 0.0282,-0.06089 0.0662,-0.07819 -0.009,-0.02051 -0.003,-0.03222 0.0194,-0.03516 -0.0185,-0.01787 -0.0212,-0.02699 -0.008,-0.02729 0.0152,-0.03749 0.0464,-0.06614 0.0935,-0.08606 -0.0212,-0.02699 -0.0264,-0.04515 -0.0157,-0.05458 0.009,-0.02574 0.0334,-0.04273 0.074,-0.0509 -0.0146,-0.03877 -0.0135,-0.06863 0.004,-0.08973 -4.1e-4,-0.02309 0.0152,-0.03749 0.0467,-0.04303 0.028,-0.129878 0.072,-0.250967 0.13181,-0.363253 -0.0637,-0.04263 -0.11149,-0.07654 -0.14335,-0.101613 z" />
      <path
         d="M 147.19838,19.500789 82.438096,104.0415 79.090899,101.43445 143.68638,16.917941 c 0.2829,-0.363198 1.22397,0.266677 1.95053,0.833345 0.8882,0.547205 1.84415,1.385536 1.56147,1.749503 z"
         fill="#d3976e"
         id="path30385"
         style="stroke:#d3976e;stroke-width:0.878141;stroke-dasharray:none;stroke-opacity:1"
         sodipodi:nodetypes="cccccc" />
      <path
         d="m 82.438126,104.04159 0.391569,6.40063 -15.014666,8.91944 4.973811,-16.74101 6.302059,-1.1862 z"
         fill="#b2c1c0"
         id="path30391"
         style="stroke-width:0.999997" />
      <path
         d="m 79.090899,101.43445 3.347197,2.60705 0.24651,1.98478 -8.285042,-0.1798 -6.584535,13.51518 4.973811,-16.74101 z"
         fill="#788283"
         id="path30397"
         style="stroke-width:0.999997" />
      <path
         style="opacity:0.99;fill:#000000;fill-opacity:0;fill-rule:evenodd;stroke-width:7.50727;stroke-linecap:round;stroke-dasharray:none"
         d="m 145.49015,17.512507 c 0,0 1.80316,-1.23482 1.80316,-1.23482 0,0 -0.5773,-0.449397 -0.5773,-0.449397 0,0 -1.22586,1.684217 -1.22586,1.684217 z"
         id="path31017"
         inkscape:path-effect="#path-effect31019"
         inkscape:original-d="m 145.49015,17.512507 1.80316,-1.23482 -0.5773,-0.449397 z" />
    </g>
    <path
       style="opacity:0.99;fill:#5b493c;fill-opacity:1;fill-rule:evenodd;stroke:#3c3c3c;stroke-width:2.52263;stroke-linecap:round;stroke-dasharray:none;stroke-opacity:1"
       d="m 98.984828,62.980379 c 0.277837,-1.029416 0.811869,-3.008053 -9.256837,-2.723945 -10.068707,0.284108 -30.847097,2.87718 -41.180152,4.16671 -10.333055,1.28953 -10.333055,1.28953 -10.333055,1.28953 0,0 -22.698782,1.048336 -22.698782,1.048336 -6.2862516,0.05515 -12.5694176,0.110279 -15.71408614,0.137869 -3.14466856,0.02759 -3.14466856,0.02759 -2.09771566,0.815619 1.0469529,0.788029 3.12461905,2.351864 6.3404926,3.665726 3.2158735,1.313862 7.5671272,2.379206 9.2180182,3.62244 1.650892,1.243233 0.590117,2.653053 0.723262,3.858718 0.133145,1.205665 1.462301,2.205396 3.739204,2.647047 2.276904,0.441651 5.513855,0.329026 7.099831,1.523367 1.585976,1.194341 1.517936,3.69312 3.808618,5.047639 2.290682,1.35452 6.942204,1.575586 9.219843,3.290096 2.277639,1.71451 2.15441,4.870393 2.091741,6.475338 -0.06267,1.604944 -0.06267,1.604944 3.759718,-0.529321 3.822387,-2.134265 11.329563,-6.325966 18.905538,-10.556081 0.641148,-0.713051 1.278925,-1.422352 1.601184,-1.780752 0.322259,-0.3584 0.322259,-0.3584 1.765727,-0.962146 1.443468,-0.603745 4.400154,-1.84041 7.040069,-2.889302 2.639915,-1.048892 5.011853,-1.930167 6.642793,-2.443735 1.630941,-0.513568 2.514971,-0.65735 3.132388,-0.820348 0.617416,-0.162998 0.96451,-0.343076 1.315302,-0.481899 0.350792,-0.138823 0.7076,-0.23807 0.923313,-0.338353 0.215713,-0.100282 0.286374,-0.194195 0.439532,-0.256817 0.153158,-0.06262 0.39426,-0.101838 0.610587,-0.200747 0.216326,-0.09891 0.402684,-0.252851 1.042587,-0.540822 0.639903,-0.28797 1.735923,-0.713489 2.796247,-1.091834 1.060324,-0.378345 2.08566,-0.709955 2.763929,-1.049396 0.678269,-0.33944 1.005944,-0.681206 1.866741,-1.355798 0.860798,-0.674592 2.255336,-1.684393 3.041211,-2.308699 0.785874,-0.624305 0.96253,-0.859092 1.068513,-0.999951 0.105983,-0.140859 0.141284,-0.187778 0.141275,-0.187765 -10e-6,1.3e-5 -0.03527,0.04688 0.02226,0.01896 0.05753,-0.02792 0.208561,-0.13491 0.448263,-0.360543 0.239701,-0.225633 0.567385,-0.567395 0.728194,-0.735108 0.1608,-0.167713 0.1608,-0.167713 0.27658,-0.108729 0.11579,0.05898 0.34118,0.173803 0.45076,0.229629 0.10959,0.05583 0.10959,0.05583 0.10959,0.05583 0,0 0,0 0.25237,-0.26128 0.25236,-0.261281 0.75651,-0.783233 0.40074,-1.473411 -0.35577,-0.690179 -1.545475,-1.531308 -2.164552,-1.968998 -0.619076,-0.43769 -0.619078,-0.437651 -0.34124,-1.467066 z"
       id="path34225"
       sodipodi:nodetypes="ccccccccccccccccccccccccccccccccccccccccccc"
       inkscape:original-d="m 98.70699,64.009794 c 0.555159,-2.05897 1.0892,-4.037605 1.63292,-6.050124 -20.680617,2.580943 -41.459009,5.173998 -62.125126,7.753004 -0.0016,2.75e-4 0,0 0,0 L 15.516002,66.76101 c 0,0 -12.5694019,0.112066 -18.8587547,0.165459 2.06e-4,0.0019 2.544e-4,0.0018 0,0 2.0931328,1.577085 4.17137366,3.140156 6.2450104,4.700545 4.357907,1.068712 8.7091603,2.134056 13.0775433,3.201856 -1.06517,1.417801 -2.125945,2.827621 -3.189359,4.238808 1.328476,0.999635 2.657059,2.000127 3.98161,2.994785 3.230092,-0.110576 6.467043,-0.2232 9.707043,-0.33774 -0.06781,2.501422 -0.135848,5.000201 -0.203899,7.48828 4.649027,0.222736 9.300549,0.443802 13.981121,0.664461 -0.124884,3.20659 -0.248114,6.362473 -0.373776,9.572349 2.54e-4,0.002 2.09e-4,0.002 0,0 7.645602,-4.267048 22.727925,-12.690346 22.727925,-12.690346 0,0 1.279926,-1.421452 1.923443,-2.139152 2.09e-4,0.0019 2.09e-4,0.0019 0,0 2.887599,-1.205905 5.844285,-2.442571 8.756903,-3.662667 2.367154,-0.877645 4.739092,-1.758919 7.115777,-2.643811 0.882375,-0.157497 1.766405,-0.30128 2.652055,-0.43134 0.345442,-0.193794 0.692532,-0.373878 1.041291,-0.540238 0.355058,-0.113199 0.711933,-0.212207 1.070362,-0.297724 0.06902,-0.107632 0.139674,-0.20155 0.21198,-0.281738 0.239458,-0.05281 0.480534,-0.09219 0.723297,-0.117643 0.184712,-0.167655 0.371072,-0.321594 0.559071,-0.461823 1.094364,-0.439226 2.190388,-0.864734 3.288016,-1.276538 1.023696,-0.345295 2.049016,-0.676954 3.075991,-0.994825 0.326033,-0.355482 0.653705,-0.697251 0.983023,-1.025295 1.392902,-1.023533 2.787432,-2.033345 4.183636,-3.029419 0.174989,-0.248496 0.351641,-0.483286 0.529944,-0.704331 0.03364,-0.06069 0.06891,-0.107633 0.105993,-0.140875 -0.03706,0.0333 -0.0723,0.08018 -0.105993,0.140875 0.149387,-0.120685 0.300407,-0.227688 0.453082,-0.320952 0.326041,-0.355481 0.653728,-0.697239 0.983043,-1.025277 -1.9e-4,-0.0016 -1.9e-4,-0.0016 0,0 0.23209,0.116944 0.45748,0.231759 0.67613,0.34444 -2e-4,-0.0016 0,0 0,0 0,0 -2e-4,-0.0016 0,0 0.50396,-0.523307 1.00811,-1.045254 1.5124,-1.56582 -1.21445,-0.859906 -2.404175,-1.701014 -3.642918,-2.575559 z"
       inkscape:path-effect="#path-effect34227" />
  </g>
  <path
     d="m 136.31024,70.508922 c -20.83049,17.73491 -32.21339,46.716208 -35.332,63.782118 h 10.85871 c 4.4434,-17.22591 7.1908,-37.05372 24.47329,-63.782118 z"
     fill="#74d23b"
     id="path30403"
     style="stroke-width:0.999997" />
  <path
     fill-rule="evenodd"
     clip-rule="evenodd"
     d="m 100.97824,134.29104 h 10.85871 c 0.676,-2.62099 1.3127,-5.30197 1.9673,-8.05796 3.0116,-12.67893 6.4019,-26.953858 15.7354,-44.296816 1.9736,-3.667281 4.2129,-7.471662 6.77059,-11.427342 -3.42029,2.912085 -6.58589,6.127269 -9.50209,9.543252 -13.7445,16.100245 -21.9469,36.658956 -25.1557,50.938886 -0.2566,1.14199 -0.4812,2.24399 -0.67421,3.29998 z m 18.18971,-37.843128 c -7.1744,12.019258 -11.8402,24.722198 -14.1305,34.543148 h 4.2278 c 0.4401,-1.78499 0.8725,-3.60698 1.3147,-5.47098 2.0557,-8.66495 4.3253,-18.2329 8.588,-29.072168 z"
     fill="#3c3c3c"
     id="path30405"
     style="stroke-width:0.999997" />
  <path
     d="m 73.902906,96.033216 c 10.260307,10.301964 13.000009,23.499904 15.185095,38.076824 3.314889,0 10.814923,0 10.814923,0 C 97.309394,122.2571 82.962009,96.382909 73.902906,96.033216 Z"
     fill="#74d23b"
     id="path30407"
     style="stroke-width:0.999997" />
  <path
     fill-rule="evenodd"
     clip-rule="evenodd"
     d="m 91.919288,130.81006 c -0.765805,-4.83398 -1.658091,-9.60895 -2.958687,-14.22593 2.797885,4.96098 5.133191,10.07895 6.560483,14.22593 z m 7.078626,0 c -2.812523,-8.78196 -9.709513,-21.78889 -16.439105,-29.15585 -3.051998,-3.340592 -6.069497,-5.521094 -8.655903,-5.620994 2.384406,2.394206 4.362702,4.944694 6.022205,7.632984 5.481496,8.87795 7.485604,19.2549 9.16289,30.44384 h 10.814923 c -0.220303,-1.00699 -0.525506,-2.11499 -0.90501,-3.29998 z"
     fill="#3c3c3c"
     id="path30409"
     style="stroke-width:0.999997" />
  <path
     d="m 129.70795,134.16804 h -13.805 c 0,0 2.5,-12.13494 4.5,-19.1349 2,-6.99997 8.2767,-15.862414 11.0323,-18.346128 -3.3497,14.649148 -5.2781,27.432078 -1.7273,37.481028 z"
     fill="#74d23b"
     id="path30411"
     style="stroke-width:0.999997" />
  <path
     fill-rule="evenodd"
     clip-rule="evenodd"
     d="m 129.70795,134.16804 c -0.3779,-1.06999 -0.6937,-2.16999 -0.9523,-3.29998 -1.7771,-7.76596 -0.8562,-16.94292 1.1769,-27.19286 0.4518,-2.27799 0.9585,-4.608174 1.5027,-6.988188 -1.1253,1.014312 -2.8378,3.092306 -4.6065,5.673188 -2.5623,3.73798 -5.2425,8.53196 -6.4258,12.67294 -1.3448,4.70697 -2.9156,11.73494 -3.8005,15.83492 -0.4312,1.99699 -0.6995,3.29998 -0.6995,3.29998 z m -9.729,-3.29998 h 5.4008 c -1.2143,-5.87797 -1.0505,-12.35794 -0.14,-19.2179 -0.703,1.48999 -1.2802,2.94698 -1.6638,4.28997 -0.9717,3.40099 -2.0792,8.10396 -2.9527,12.00594 -0.2354,1.052 -0.4527,2.03999 -0.6443,2.92199 z"
     fill="#3c3c3c"
     id="path30413"
     style="stroke-width:0.999997" />
  <path
     d="m 75.958612,134.07604 c 2.920396,-5.29197 1.699093,-11.48394 -5.756901,-22.86588 10.827304,6.50996 14.858996,12.73793 16.701204,22.86588 z"
     fill="#74d23b"
     id="path30415"
     style="stroke-width:0.999997" />
  <path
     fill-rule="evenodd"
     clip-rule="evenodd"
     d="m 75.958612,134.07604 h 10.944303 c -0.208804,-1.14899 -0.445804,-2.24699 -0.717604,-3.29998 -1.555404,-6.03097 -4.251792,-10.62095 -9.346599,-14.90993 -1.868903,-1.57299 -4.060509,-3.10698 -6.637001,-4.65597 1.633091,2.49299 2.966992,4.73697 4.023895,6.77696 2.808109,5.42098 3.659899,9.40196 2.968009,12.78894 -0.2367,1.15799 -0.653803,2.24599 -1.235003,3.29998 z m 6.808097,-3.29998 c -0.619,-2.17799 -1.402594,-4.08898 -2.413698,-5.83697 0.418104,2.07799 0.477404,4.00998 0.192804,5.83697 z"
     fill="#3c3c3c"
     id="path30417"
     style="stroke-width:0.999997" />
</svg>
